<svg xmlns="http://www.w3.org/2000/svg" xmlns:xlink="http://www.w3.org/1999/xlink" width="500" zoomAndPan="magnify" viewBox="0 0 375 374.999991" height="500" preserveAspectRatio="xMidYMid meet" version="1.0"><defs><clipPath id="101854a53a"><path d="M 0 53.671875 L 375 53.671875 L 375 321.421875 L 0 321.421875 Z M 0 53.671875 " clip-rule="nonzero"/></clipPath><clipPath id="a7dc9baadc"><path d="M 0 0.671875 L 374.878906 0.671875 L 374.878906 260 L 0 260 Z M 0 0.671875 " clip-rule="nonzero"/></clipPath><clipPath id="093ed6dc50"><path d="M 63 133 L 372 133 L 372 268.421875 L 63 268.421875 Z M 63 133 " clip-rule="nonzero"/></clipPath><clipPath id="4064ab64ac"><rect x="0" width="375" y="0" height="269"/></clipPath></defs><g clip-path="url(#101854a53a)"><g transform="matrix(1, 0, 0, 1, 0, 53)"><g clip-path="url(#4064ab64ac)"><g clip-path="url(#a7dc9baadc)"><path fill="#33c9f2" d="M 174.320312 171.664062 L 218.988281 191.191406 L 223.503906 181.304688 L 254.015625 114.179688 L 284.773438 181.304688 L 304.425781 224.269531 L 306.863281 229.515625 L 374.847656 259.296875 L 254.992188 2.136719 L 253.40625 2.136719 Z M 0.152344 0.671875 L 0.152344 51.933594 L 63.375 51.933594 L 63.375 123.210938 L 115.125 145.910156 L 115.125 51.933594 L 219.476562 51.933594 L 243.277344 0.671875 Z M 0.152344 0.671875 " fill-opacity="1" fill-rule="nonzero"/></g><g clip-path="url(#093ed6dc50)"><path fill="#ffb18b" d="M 63.375 133.707031 L 63.375 268.328125 L 115.246094 268.328125 L 115.246094 189.238281 L 158.816406 206.328125 L 129.890625 268.328125 L 184.449219 268.328125 L 200.316406 233.300781 L 204.464844 224.269531 L 316.75 268.328125 L 371.1875 268.328125 L 303.082031 238.546875 L 215.449219 200.222656 L 170.777344 180.695312 L 115.246094 156.40625 Z M 63.375 133.707031 " fill-opacity="1" fill-rule="nonzero"/></g></g></g></g></svg>